# xmcd
#
# Track frame offsets:
#	150
#	5571
#	53902
#	79214
#	113999
#	139084
#	166933
#	238137
#	275257
#	301655
#
# Disc length: 4425 seconds
#
# Revision: 1
# Processed by: cddbd v1.5.2PL0 Copyright (c) Steve Scherf et al.
# Submitted via: audiograbber 1.83.01
#
DISCID=7e11470a
DTITLE=Grateful Dead - 78-04-15 College Of William and Mary, Williamsburg VA
DYEAR=1900
DGENRE=
TTITLE0=Tuning
TTITLE1=Mississippi Half-Step
TTITLE2=Passenger
TTITLE3=Friend Of The Devil
TTITLE4=El Paso
TTITLE5=Brown Eyed Women
TTITLE6=Let It Grow
TTITLE7=Deal
TTITLE8=Bertha
TTITLE9=Good Lovin'
EXTD=
EXTT0=
EXTT1=
EXTT2=
EXTT3=
EXTT4=
EXTT5=
EXTT6=
EXTT7=
EXTT8=
EXTT9=
PLAYORDER=
